<svg xmlns="http://www.w3.org/2000/svg" width="131.153" height="158.374" viewBox="0 0 131.153 158.374">
  <g id="businessman" transform="translate(-44)">
    <g id="Group_38" data-name="Group 38" transform="translate(44 51.657)">
      <g id="Group_37" data-name="Group 37">
        <path id="Path_26" data-name="Path 26" d="M49.28,167.906a3.091,3.091,0,1,0,.907,2.187A3.114,3.114,0,0,0,49.28,167.906Z" transform="translate(-44 -167)" fill="#fff"/>
      </g>
    </g>
    <g id="Group_40" data-name="Group 40" transform="translate(44)">
      <g id="Group_39" data-name="Group 39">
        <path id="Path_27" data-name="Path 27" d="M165.874,0H103.287a3.093,3.093,0,1,0,0,6.186h62.586a3.1,3.1,0,0,1,3.093,3.093V149.094a3.1,3.1,0,0,1-3.093,3.093H53.28a3.1,3.1,0,0,1-3.093-3.093V66.3A3.093,3.093,0,0,0,44,66.3v82.8a9.29,9.29,0,0,0,9.28,9.28H165.874a9.29,9.29,0,0,0,9.28-9.28V9.28A9.29,9.29,0,0,0,165.874,0Z" transform="translate(-44)" fill="#fff"/>
      </g>
    </g>
    <g id="Group_42" data-name="Group 42" transform="translate(68.961 12.373)">
      <g id="Group_41" data-name="Group 41">
        <path id="Path_28" data-name="Path 28" d="M165.311,40a41.636,41.636,0,0,0-6.287.478,3.093,3.093,0,1,0,.938,6.115,35.382,35.382,0,0,1,5.349-.406,34.934,34.934,0,0,1,26.734,57.445A30.992,30.992,0,0,0,175.9,90.118a15.11,15.11,0,0,0,4.571-10.833V76.269a15.157,15.157,0,1,0-30.314,0v3.016a15.109,15.109,0,0,0,4.571,10.833,31,31,0,0,0-16.181,13.568,34.839,34.839,0,0,1-7.7-16.719,3.093,3.093,0,0,0-6.1,1.023A41.143,41.143,0,1,0,165.311,40Zm-8.97,36.269a8.97,8.97,0,1,1,17.941,0v3.016a8.97,8.97,0,1,1-17.941,0Zm8.97,39.826a34.912,34.912,0,0,1-22.177-7.882,24.742,24.742,0,0,1,44.327-.053A34.792,34.792,0,0,1,165.311,116.094Z" transform="translate(-124.696 -40)" fill="#fff"/>
      </g>
    </g>
    <g id="Group_44" data-name="Group 44" transform="translate(91.128 123.112)">
      <g id="Group_43" data-name="Group 43">
        <path id="Path_29" data-name="Path 29" d="M243.374,398H199.45a3.093,3.093,0,1,0,0,6.186h43.924a3.093,3.093,0,0,0,0-6.186Z" transform="translate(-196.357 -398.002)" fill="#fff"/>
      </g>
    </g>
    <g id="Group_46" data-name="Group 46" transform="translate(77.914 105.789)">
      <g id="Group_45" data-name="Group 45">
        <path id="Path_30" data-name="Path 30" d="M158.92,342.906a3.091,3.091,0,1,0,.906,2.187A3.115,3.115,0,0,0,158.92,342.906Z" transform="translate(-153.64 -342)" fill="#fff"/>
      </g>
    </g>
    <g id="Group_48" data-name="Group 48" transform="translate(77.914 123.111)">
      <g id="Group_47" data-name="Group 47">
        <path id="Path_31" data-name="Path 31" d="M158.92,398.906a3.091,3.091,0,1,0,.906,2.187A3.11,3.11,0,0,0,158.92,398.906Z" transform="translate(-153.64 -398)" fill="#fff"/>
      </g>
    </g>
    <g id="Group_50" data-name="Group 50" transform="translate(91.128 105.789)">
      <g id="Group_49" data-name="Group 49">
        <path id="Path_32" data-name="Path 32" d="M243.374,342H199.45a3.093,3.093,0,1,0,0,6.186h43.924a3.093,3.093,0,0,0,0-6.186Z" transform="translate(-196.357 -342.002)" fill="#fff"/>
      </g>
    </g>
    <g id="Group_52" data-name="Group 52" transform="translate(57.213 16.92)">
      <g id="Group_51" data-name="Group 51" transform="translate(0)">
        <path id="Path_33" data-name="Path 33" d="M109.888,55.607a3.094,3.094,0,0,0-4.375,0L95.439,65.68,92,62.238a3.093,3.093,0,0,0-4.375,4.375l5.63,5.63a3.094,3.094,0,0,0,4.375,0l12.261-12.261A3.094,3.094,0,0,0,109.888,55.607Z" transform="translate(-86.716 -54.701)" fill="#fff"/>
      </g>
    </g>
    <g id="Group_54" data-name="Group 54" transform="translate(44)">
      <g id="Group_53" data-name="Group 53">
        <path id="Path_34" data-name="Path 34" d="M69.365,0A25.365,25.365,0,1,0,94.729,25.365,25.393,25.393,0,0,0,69.365,0Zm0,44.543A19.178,19.178,0,1,1,88.543,25.365,19.2,19.2,0,0,1,69.365,44.543Z" transform="translate(-44)" fill="#fff"/>
      </g>
    </g>
  </g>
</svg>
