<svg xmlns="http://www.w3.org/2000/svg" width="152.193" height="152.193" viewBox="0 0 152.193 152.193">
  <g id="process" transform="translate(0 0)">
    <path id="Path_35" data-name="Path 35" d="M86.2,152.193H65.99a5.952,5.952,0,0,1-5.945-5.945v-8.875a62.8,62.8,0,0,1-15.922-6.6l-6.281,6.281a5.953,5.953,0,0,1-8.408,0L15.141,122.758a5.951,5.951,0,0,1,0-8.407l6.281-6.282a62.8,62.8,0,0,1-6.6-15.922H5.945A5.952,5.952,0,0,1,0,86.2V65.99a5.952,5.952,0,0,1,5.945-5.945H14.8A62.8,62.8,0,0,1,21.4,44.1l-6.254-6.254a5.951,5.951,0,0,1,0-8.407L29.435,15.141a5.953,5.953,0,0,1,8.408,0l6.232,6.233a62.8,62.8,0,0,1,15.97-6.63v-8.8A5.952,5.952,0,0,1,65.99,0H86.2a5.952,5.952,0,0,1,5.945,5.945v8.779a62.827,62.827,0,0,1,16,6.622l6.206-6.205a5.951,5.951,0,0,1,8.407,0l14.294,14.294a5.953,5.953,0,0,1,0,8.408l-6.205,6.205a62.827,62.827,0,0,1,6.622,16h8.779a5.952,5.952,0,0,1,5.945,5.945V86.2a5.952,5.952,0,0,1-5.945,5.945h-8.8a62.839,62.839,0,0,1-6.63,15.97l6.232,6.233a5.951,5.951,0,0,1,0,8.407l-14.292,14.294a5.953,5.953,0,0,1-8.408,0L108.1,130.8a62.83,62.83,0,0,1-15.949,6.6v8.855a5.952,5.952,0,0,1-5.945,5.945ZM43.677,124.04a2.968,2.968,0,0,1,1.6.467,56.916,56.916,0,0,0,18.383,7.624,2.973,2.973,0,0,1,2.33,2.9v11.214H86.2v-11.2a2.972,2.972,0,0,1,2.334-2.9,56.961,56.961,0,0,0,18.411-7.612,2.973,2.973,0,0,1,3.7.405l7.907,7.907,14.292-14.292-7.89-7.89a2.973,2.973,0,0,1-.4-3.7,56.954,56.954,0,0,0,7.652-18.427,2.971,2.971,0,0,1,2.9-2.33h11.139V65.99H135.125a2.972,2.972,0,0,1-2.9-2.334,56.921,56.921,0,0,0-7.64-18.455,2.974,2.974,0,0,1,.4-3.7l7.861-7.861L118.555,19.346l-7.861,7.861a2.974,2.974,0,0,1-3.7.4,56.947,56.947,0,0,0-18.455-7.64,2.972,2.972,0,0,1-2.334-2.9V5.945H65.99V17.084a2.973,2.973,0,0,1-2.329,2.9,56.947,56.947,0,0,0-18.428,7.651,2.971,2.971,0,0,1-3.7-.4l-7.891-7.89L19.346,33.638l7.907,7.909a2.971,2.971,0,0,1,.405,3.7,56.961,56.961,0,0,0-7.612,18.411,2.972,2.972,0,0,1-2.9,2.334H5.945V86.2H17.159a2.974,2.974,0,0,1,2.9,2.33,56.932,56.932,0,0,0,7.624,18.383,2.973,2.973,0,0,1-.4,3.7l-7.936,7.936,14.292,14.294,7.936-7.938a2.973,2.973,0,0,1,2.1-.871Zm0,0" fill="#fff"/>
    <path id="Path_36" data-name="Path 36" d="M153.446,196.791A43.391,43.391,0,1,1,174.66,115.54a2.972,2.972,0,1,1-2.908,5.184,37.454,37.454,0,1,0,15.212,15.951,2.972,2.972,0,1,1,5.318-2.657,43.384,43.384,0,0,1-38.837,62.772Zm0,0" transform="translate(-77.35 -77.316)" fill="#fff"/>
    <path id="Path_37" data-name="Path 37" d="M347.325,157.957a2.975,2.975,0,1,1,2.1-.872A2.991,2.991,0,0,1,347.325,157.957Zm0,0" transform="translate(-241.993 -106.826)" fill="#fff"/>
    <path id="Path_38" data-name="Path 38" d="M190.419,226.128a2.972,2.972,0,0,1-2.1-.871l-18.8-18.8a2.971,2.971,0,0,1,0-4.2l10.662-10.663a2.976,2.976,0,0,1,4.2,0l6.033,6.034L204.844,183.2a2.971,2.971,0,0,1,4.2,0l10.663,10.663a2.974,2.974,0,0,1,0,4.2l-27.188,27.188a2.977,2.977,0,0,1-2.1.871Zm-14.594-21.771,14.594,14.594L213.4,195.967l-6.458-6.458-14.424,14.424a2.973,2.973,0,0,1-4.2,0l-6.034-6.034Zm0,0" transform="translate(-118.518 -128.134)" fill="#fff"/>
  </g>
</svg>
