<svg xmlns="http://www.w3.org/2000/svg" width="197.318" height="130.379" viewBox="0 0 197.318 130.379">
  <g id="sound-waves" transform="translate(0 -86.847)">
    <g id="Group_6" data-name="Group 6" transform="translate(81.815 126.223)">
      <g id="Group_5" data-name="Group 5">
        <path id="Path_3" data-name="Path 3" d="M218.856,189.02a6.562,6.562,0,0,0-6.563,6.563v38.5a6.563,6.563,0,1,0,13.126,0v-38.5A6.563,6.563,0,0,0,218.856,189.02Z" transform="translate(-212.293 -189.02)" fill="#fff"/>
      </g>
    </g>
    <g id="Group_8" data-name="Group 8" transform="translate(61.47 105.879)">
      <g id="Group_7" data-name="Group 7">
        <path id="Path_4" data-name="Path 4" d="M166.066,136.231a6.562,6.562,0,0,0-6.563,6.563v79.192a6.563,6.563,0,1,0,13.126,0V142.793A6.562,6.562,0,0,0,166.066,136.231Z" transform="translate(-159.503 -136.231)" fill="#fff"/>
      </g>
    </g>
    <g id="Group_10" data-name="Group 10" transform="translate(40.907 86.847)">
      <g id="Group_9" data-name="Group 9">
        <path id="Path_5" data-name="Path 5" d="M112.709,86.847a6.562,6.562,0,0,0-6.563,6.563V210.663a6.563,6.563,0,0,0,13.126,0V93.41A6.562,6.562,0,0,0,112.709,86.847Z" transform="translate(-106.146 -86.847)" fill="#fff"/>
      </g>
    </g>
    <g id="Group_12" data-name="Group 12" transform="translate(20.563 105.879)">
      <g id="Group_11" data-name="Group 11">
        <path id="Path_6" data-name="Path 6" d="M59.92,136.231a6.562,6.562,0,0,0-6.563,6.563v79.192a6.563,6.563,0,1,0,13.126,0V142.793A6.562,6.562,0,0,0,59.92,136.231Z" transform="translate(-53.357 -136.231)" fill="#fff"/>
      </g>
    </g>
    <g id="Group_14" data-name="Group 14" transform="translate(0 124.911)">
      <g id="Group_13" data-name="Group 13">
        <path id="Path_7" data-name="Path 7" d="M6.563,185.614A6.562,6.562,0,0,0,0,192.177V233.3a6.563,6.563,0,1,0,13.126,0V192.177A6.562,6.562,0,0,0,6.563,185.614Z" transform="translate(0 -185.614)" fill="#fff"/>
      </g>
    </g>
    <g id="Group_16" data-name="Group 16" transform="translate(143.286 86.847)">
      <g id="Group_15" data-name="Group 15">
        <path id="Path_8" data-name="Path 8" d="M378.359,86.847A6.562,6.562,0,0,0,371.8,93.41V210.663a6.563,6.563,0,1,0,13.126,0V93.41A6.562,6.562,0,0,0,378.359,86.847Z" transform="translate(-371.796 -86.847)" fill="#fff"/>
      </g>
    </g>
    <g id="Group_18" data-name="Group 18" transform="translate(122.722 105.879)">
      <g id="Group_17" data-name="Group 17">
        <path id="Path_9" data-name="Path 9" d="M325,136.231a6.562,6.562,0,0,0-6.563,6.563v79.192a6.563,6.563,0,1,0,13.126,0V142.793A6.562,6.562,0,0,0,325,136.231Z" transform="translate(-318.439 -136.231)" fill="#fff"/>
      </g>
    </g>
    <g id="Group_20" data-name="Group 20" transform="translate(102.378 116.16)">
      <g id="Group_19" data-name="Group 19">
        <path id="Path_10" data-name="Path 10" d="M272.213,162.909a6.562,6.562,0,0,0-6.563,6.563V228.1a6.563,6.563,0,1,0,13.126,0V169.472A6.563,6.563,0,0,0,272.213,162.909Z" transform="translate(-265.65 -162.909)" fill="#fff"/>
      </g>
    </g>
    <g id="Group_22" data-name="Group 22" transform="translate(163.63 105.879)">
      <g id="Group_21" data-name="Group 21">
        <path id="Path_11" data-name="Path 11" d="M431.148,136.231a6.562,6.562,0,0,0-6.563,6.563v79.192a6.563,6.563,0,1,0,13.126,0V142.793A6.562,6.562,0,0,0,431.148,136.231Z" transform="translate(-424.585 -136.231)" fill="#fff"/>
      </g>
    </g>
    <g id="Group_24" data-name="Group 24" transform="translate(184.193 124.911)">
      <g id="Group_23" data-name="Group 23">
        <path id="Path_12" data-name="Path 12" d="M484.5,185.614a6.562,6.562,0,0,0-6.563,6.563V233.3a6.563,6.563,0,1,0,13.126,0V192.177A6.562,6.562,0,0,0,484.5,185.614Z" transform="translate(-477.942 -185.614)" fill="#fff"/>
      </g>
    </g>
  </g>
</svg>
