<svg xmlns="http://www.w3.org/2000/svg" width="123.804" height="155.768" viewBox="0 0 123.804 155.768">
  <g id="document" transform="translate(-41.8)">
    <g id="Group_2" data-name="Group 2" transform="translate(70.551 62.624)">
      <g id="Group_1" data-name="Group 1">
        <path id="Path_1" data-name="Path 1" d="M176.873,175.149a3.182,3.182,0,0,0-2.982-.8l-36.552,7.379a3.983,3.983,0,0,0-3.173,3.976v28.37a12.426,12.426,0,0,0-4.4-.8,12.581,12.581,0,1,0,12.388,12.77V204.284l27.95-5.812v8.373c0-.382-2.6-.8-4.206-.8a12.386,12.386,0,0,0-12.2,12.579,12.574,12.574,0,0,0,12.579,12.388c7-.229,11.891-6,11.776-13V178.131A3.383,3.383,0,0,0,176.873,175.149ZM130.15,230.4a.171.171,0,0,0-.191,0,4.854,4.854,0,0,1-5.429-3.671,4.561,4.561,0,0,1,3.556-5.429,6.5,6.5,0,0,1,1.912-.191,4.72,4.72,0,0,1,4.359,4.588A4.53,4.53,0,0,1,130.15,230.4Zm12.006-34.3v-7.188l27.95-5.812v7.188ZM166.7,223.057h-.382a4.4,4.4,0,0,1-4.4-4.4,4.592,4.592,0,1,1,4.779,4.4Z" transform="translate(-116.995 -174.251)" fill="#fff"/>
      </g>
    </g>
    <g id="Group_4" data-name="Group 4" transform="translate(41.8)">
      <g id="Group_3" data-name="Group 3" transform="translate(0)">
        <path id="Path_2" data-name="Path 2" d="M164.419,43.32,122.093,1.185A3.877,3.877,0,0,0,119.3,0H61.758A19.948,19.948,0,0,0,41.8,19.958V135.81a19.948,19.948,0,0,0,19.958,19.959h83.887A19.948,19.948,0,0,0,165.6,135.81v-89.7A3.967,3.967,0,0,0,164.419,43.32Zm-40.72-3.4V13.994l28.141,27.912H125.687a1.775,1.775,0,0,1-1.988-1.568Zm33.952,95.893a11.961,11.961,0,0,1-11.967,11.967H61.758A11.961,11.961,0,0,1,49.791,135.81V19.959A11.961,11.961,0,0,1,61.758,7.991h53.949V39.955a9.986,9.986,0,0,0,9.979,9.979h31.964Z" transform="translate(-41.8)" fill="#fff"/>
      </g>
    </g>
  </g>
</svg>
