<svg id="settings" xmlns="http://www.w3.org/2000/svg" width="152.193" height="152.193" viewBox="0 0 152.193 152.193">
  <g id="Group_26" data-name="Group 26" transform="translate(10.146 40.585)">
    <g id="Group_25" data-name="Group 25">
      <path id="Path_13" data-name="Path 13" d="M163.5,136.533H36.67a2.536,2.536,0,0,0-2.536,2.536v96.389a2.536,2.536,0,0,0,2.536,2.536H163.5a2.536,2.536,0,0,0,2.536-2.536V139.07A2.536,2.536,0,0,0,163.5,136.533Zm-2.536,96.389H39.207V141.606H160.961v91.316Z" transform="translate(-34.134 -136.533)" fill="#fff"/>
    </g>
  </g>
  <g id="Group_28" data-name="Group 28">
    <g id="Group_27" data-name="Group 27">
      <path id="Path_14" data-name="Path 14" d="M140.779,0H11.414A11.428,11.428,0,0,0,0,11.414V140.779a11.428,11.428,0,0,0,11.414,11.414H140.779a11.428,11.428,0,0,0,11.414-11.414V11.414A11.428,11.428,0,0,0,140.779,0Zm6.341,140.779a6.347,6.347,0,0,1-6.341,6.341H11.414a6.348,6.348,0,0,1-6.341-6.341V11.414a6.348,6.348,0,0,1,6.341-6.341H140.779a6.348,6.348,0,0,1,6.341,6.341Z" fill="#fff"/>
    </g>
  </g>
  <g id="Group_30" data-name="Group 30" transform="translate(10.146 10.146)">
    <g id="Group_29" data-name="Group 29">
      <path id="Path_15" data-name="Path 15" d="M46.817,34.133H36.67a2.536,2.536,0,0,0-2.536,2.536V46.816a2.536,2.536,0,0,0,2.536,2.536H46.817a2.536,2.536,0,0,0,2.536-2.536V36.67A2.536,2.536,0,0,0,46.817,34.133ZM44.28,44.279H39.207V39.206H44.28Z" transform="translate(-34.134 -34.133)" fill="#fff"/>
    </g>
  </g>
  <g id="Group_32" data-name="Group 32" transform="translate(30.439 10.146)">
    <g id="Group_31" data-name="Group 31">
      <path id="Path_16" data-name="Path 16" d="M115.084,34.133H104.937a2.536,2.536,0,0,0-2.536,2.536V46.816a2.536,2.536,0,0,0,2.536,2.536h10.146a2.536,2.536,0,0,0,2.536-2.536V36.67A2.536,2.536,0,0,0,115.084,34.133Zm-2.537,10.146h-5.073V39.206h5.073Z" transform="translate(-102.401 -34.133)" fill="#fff"/>
    </g>
  </g>
  <g id="Group_34" data-name="Group 34" transform="translate(50.731 10.146)">
    <g id="Group_33" data-name="Group 33">
      <path id="Path_17" data-name="Path 17" d="M183.35,34.133H173.2a2.536,2.536,0,0,0-2.536,2.536V46.816a2.536,2.536,0,0,0,2.536,2.536H183.35a2.536,2.536,0,0,0,2.536-2.536V36.67A2.536,2.536,0,0,0,183.35,34.133Zm-2.536,10.146H175.74V39.206h5.073Z" transform="translate(-170.667 -34.133)" fill="#fff"/>
    </g>
  </g>
  <g id="Group_36" data-name="Group 36">
    <g id="Group_35" data-name="Group 35">
      <path id="Path_18" data-name="Path 18" d="M140.779,0H11.414A11.428,11.428,0,0,0,0,11.414V32.975a2.536,2.536,0,0,0,2.536,2.536h147.12a2.536,2.536,0,0,0,2.536-2.536V11.414A11.428,11.428,0,0,0,140.779,0Zm6.341,30.439H5.073V11.414a6.348,6.348,0,0,1,6.341-6.341H140.779a6.348,6.348,0,0,1,6.341,6.341Z" fill="#fff"/>
    </g>
  </g>
  <path id="Icon_ionic-ios-musical-notes" data-name="Icon ionic-ios-musical-notes" d="M47.517,3.4c-.617.118-26.539,5.15-27.09,5.255a1.165,1.165,0,0,0-1.064,1.051V41.251a3.624,3.624,0,0,1-.315,1.537,3.5,3.5,0,0,1-2.115,1.669c-.434.145-1.025.276-1.721.434C12.045,45.6,6.75,46.809,6.75,51.7a6.014,6.014,0,0,0,5.479,6.241,6.405,6.405,0,0,0,.933.092h0c.88,0,4.73-.434,6.727-1.734a7.078,7.078,0,0,0,3.166-6.28V22.1a1.043,1.043,0,0,1,.841-1.025l19.97-4.033a1.05,1.05,0,0,1,1.261,1.025v17.2a3.766,3.766,0,0,1-.328,1.76,3.492,3.492,0,0,1-2.128,1.669c-.434.145-1.156.276-1.852.434-3.166.709-8.461,1.9-8.461,6.792a6.025,6.025,0,0,0,5.492,6.346,10.857,10.857,0,0,0,2.549-.118,15.063,15.063,0,0,0,4.8-1.708A6.925,6.925,0,0,0,48.8,44.1V4.413A1.041,1.041,0,0,0,47.517,3.4Z" transform="translate(53.963 53.394) rotate(18)" fill="#fff"/>
</svg>
