<svg xmlns="http://www.w3.org/2000/svg" width="131.849" height="155.766" viewBox="0 0 131.849 155.766">
  <g id="identity" transform="translate(-39)">
    <path id="Path_19" data-name="Path 19" d="M108.022,152.7a3.068,3.068,0,1,1-3.069-3.066A3.072,3.072,0,0,1,108.022,152.7Zm-67.488,0v-3.879c0-20.443,13.866-31.592,19.937-35.231a102.153,102.153,0,0,1,26.364-11.128V97.524a28.2,28.2,0,0,1-4.2-4.64A73.406,73.406,0,0,1,73.7,76.459a6.427,6.427,0,0,1-4.93-3.657c-.927-1.962-7.357-13.856-8.342-15.973a9.251,9.251,0,0,1,4.9-12.375,9.757,9.757,0,0,1,2.118-.614A35.446,35.446,0,0,1,101.858,0a13.115,13.115,0,0,1,9.152,3.7.068.068,0,0,0,.094,0A13.117,13.117,0,0,1,120.256,0a24.1,24.1,0,0,1,24.07,24.07v5.584a51.6,51.6,0,0,1-1.963,14.129,8.558,8.558,0,0,1,2.168.627c5.091,2.306,7.079,8,4.9,12.375-1.04,2.09-7.415,14.01-8.342,15.973a6.43,6.43,0,0,1-4.927,3.656,73.413,73.413,0,0,1-8.943,16.463,28.232,28.232,0,0,1-4.208,4.646v4.938a102.158,102.158,0,0,1,26.364,11.128c6.071,3.64,19.937,14.788,19.937,35.231V152.7a3.066,3.066,0,0,1-3.066,3.066h-47.5a3.069,3.069,0,0,1-3.06-3.271,3.138,3.138,0,0,1,3.167-2.861h44.326a35.553,35.553,0,0,0-16.959-30.782,95.978,95.978,0,0,0-23.56-10.133,18.091,18.091,0,0,1-35.48,0,96,96,0,0,0-23.56,10.133c-10.462,6.267-16.959,17.479-16.959,30.782H91.157a3.069,3.069,0,0,1,3.056,3.279,3.139,3.139,0,0,1-3.167,2.853H43.6a3.066,3.066,0,0,1-3.066-3.066ZM72.587,35.885a15.876,15.876,0,0,1,11.8-5.529,15.632,15.632,0,0,1,9.884,3.523A14.442,14.442,0,0,0,117.8,22.632a3.066,3.066,0,0,1,6.131,0,9.85,9.85,0,0,0,5.5,8.861,20.266,20.266,0,0,1,7.966,6.657,45.65,45.65,0,0,0,.793-8.494V24.07A17.958,17.958,0,0,0,120.256,6.133a7.013,7.013,0,0,0-4.893,1.976,6.177,6.177,0,0,1-8.612,0,7.012,7.012,0,0,0-4.893-1.976A29.208,29.208,0,0,0,72.587,35.885Zm44.3,65.722a27.642,27.642,0,0,1-23.917,0v3.564a11.958,11.958,0,0,0,23.917,0Zm5.368-12.321a67.146,67.146,0,0,0,8.955-17.147,3.055,3.055,0,0,1,4.213-1.745c1.138-2.423,7.543-14.268,8.472-16.23a3.173,3.173,0,0,0-1.756-4.11,3.306,3.306,0,0,0-2.8.14,3.082,3.082,0,0,1-4.5-2.279,13.848,13.848,0,0,0-8.009-10.872,15.37,15.37,0,0,1-5.55-4.407,23.8,23.8,0,0,1-3.435,4.571,20.446,20.446,0,0,1-27.459,1.42,9.435,9.435,0,0,0-12.582.638,10.035,10.035,0,0,0-2.93,6.978v1.207a3.073,3.073,0,0,1-4.442,2.741,3.316,3.316,0,0,0-2.7-.091,3.122,3.122,0,0,0-1.756,4.11c.92,1.967,7.467,13.989,8.437,16.185a3.139,3.139,0,0,1,4.248,1.789A67.242,67.242,0,0,0,87.6,89.294a21.312,21.312,0,0,0,34.649-.007Zm48.6-70.89V3.066A3.066,3.066,0,0,0,167.783,0H152.452a3.066,3.066,0,1,0,0,6.133h12.265V18.4a3.066,3.066,0,1,0,6.133,0Zm0,83.709V86.775a3.066,3.066,0,1,0-6.133,0V99.04H152.452a3.066,3.066,0,1,0,0,6.133h15.331A3.066,3.066,0,0,0,170.849,102.106ZM45.133,18.4V6.133H57.4A3.066,3.066,0,1,0,57.4,0H42.066A3.066,3.066,0,0,0,39,3.066V18.4a3.066,3.066,0,0,0,6.133,0Zm15.331,83.709A3.066,3.066,0,0,0,57.4,99.04H45.133V86.775a3.066,3.066,0,0,0-6.133,0v15.331a3.066,3.066,0,0,0,3.066,3.066H57.4A3.066,3.066,0,0,0,60.464,102.106Z" transform="translate(0 0)" fill="#fff"/>
  </g>
</svg>
